# xmcd CD database file
#
# Track frame offsets:
#	150
#	21598
#	37276
#	58820
#	81459
#	102490
#	126869
#	153650
#	175220
#	204546
#
# Disc length: 3003 seconds
#
# Revision: 0
# Processed by: cddbd v1.5.2PL0 Copyright (c) Steve Scherf et al.
# Submitted via: CDex 1.51
#
DISCID=980bb90a
DTITLE=Fridrik Karlsson - Point Blank
DYEAR=1991
DGENRE=New Age
TTITLE0=Road To Salso
TTITLE1=Back To Basics
TTITLE2=Cloud 30
TTITLE3=Night Breeze
TTITLE4=Sin Ti
TTITLE5=Point Blank
TTITLE6=Morning Mist
TTITLE7=Savannah Colada
TTITLE8=Dream Forrest
TTITLE9=Odds And Evens
EXTD=YEAR: 1991
EXTT0=
EXTT1=
EXTT2=
EXTT3=
EXTT4=
EXTT5=
EXTT6=
EXTT7=
EXTT8=
EXTT9=
PLAYORDER=
